<svg xmlns="http://www.w3.org/2000/svg" xml:space="preserve" width="512" height="512" viewBox="0 0 135.467 135.467">
  <g transform="translate(-228.288 -178.88) scale(1.06016)">
    <path fill="#1e556d" fill-rule="evenodd" d="M273.185 168.876c17.498-1.077 33.045 3.73 46.639 14.42l8.612 8.599c15.572 20.122 18.752 42.17 9.54 66.145-8.489 18.44-22.49 30.567-42.002 36.38-24.972 5.777-46.304-.44-63.996-18.653-13.83-15.597-19.042-33.765-15.635-54.504 4.59-21.514 16.736-37.168 36.437-46.963a69.858 69.858 0 0 1 20.405-5.424z" clip-rule="evenodd" image-rendering="optimizeQuality" shape-rendering="geometricPrecision" text-rendering="geometricPrecision"/>
    <circle cx="279.223" cy="232.618" r="52.096" fill="#fff"/>
  </g>
  <path fill="#b24754" fill-rule="evenodd" d="M97.893 21.669c.543.171 1.01.452 1.403.841h-.561c-.561 0-.842-.28-.842-.841z" clip-rule="evenodd" image-rendering="optimizeQuality" shape-rendering="geometricPrecision" text-rendering="geometricPrecision"/>
  <path fill="#9c2040" fill-rule="evenodd" d="M99.296 22.51c.428-.02.708.167.841.561-.428.021-.709-.166-.841-.56z" clip-rule="evenodd" image-rendering="optimizeQuality" shape-rendering="geometricPrecision" text-rendering="geometricPrecision"/>
  <path fill="#4d3168" fill-rule="evenodd" d="M118.37 60.94c-6.069 5.324-13.081 8.784-21.038 10.378a41.825 41.825 0 0 1-7.854 1.262c-6.266.17-12.53.124-18.794-.14h-.28v2.805a23.01 23.01 0 0 0 1.402 6.451c3.612 7.538 9.315 12.867 17.111 15.989 6.357 2.645 12.715 2.598 19.074-.14 2.7-1.438 4.664-3.542 5.89-6.311.572-.866 1.04-1.8 1.403-2.806.906-2.53 1.748-5.055 2.525-7.573a55.845 55.845 0 0 0 1.122-15.428 11.056 11.056 0 0 0-.561-4.488zm-10.676 18.526a3.71 3.71 0 0 1 3.71 3.71 3.71 3.71 0 0 1-3.71 3.711 3.71 3.71 0 0 1-3.71-3.71 3.71 3.71 0 0 1 3.71-3.71zm6.104 11.375zm-2.76 1.89zm-2.65 1.713zm-.721.4zm-1.278.637z" clip-rule="evenodd" image-rendering="optimizeQuality" shape-rendering="geometricPrecision" text-rendering="geometricPrecision"/>
  <path fill="#ffb03a" fill-rule="evenodd" d="M67.651 17.39a58.674 58.674 0 0 0-8.467.633c-.763.396-1.604.583-2.525.56-8.715 2.113-16.382 6.134-23 12.062a19.874 19.874 0 0 1-2.806 2.805 68.04 68.04 0 0 0-7.573 10.38 3.464 3.464 0 0 1-1.122 1.963c-.045.464-.232.838-.561 1.122-.058.77-.339 1.424-.842 1.964a130.218 130.218 0 0 0-2.805 9.256 10.65 10.65 0 0 1-.56 3.086c-.234 4.203-.328 8.41-.281 12.622.243 1.688.524 3.371.841 5.05-.084.59.01 1.15.28 1.682 5.415-12.655 14.95-19.995 28.613-22.02 5.536-13.807 15.727-21.52 30.574-23.141 3.406-.43 6.866-.71 10.38-.842a24.65 24.65 0 0 1 3.646-.56 17.8 17.8 0 0 0 2.244-1.123 5.504 5.504 0 0 0 2.524-2.524c.464-2.214-.098-4.13-1.683-5.75a33.097 33.097 0 0 0-5.049-2.806c-7-2.917-14.186-4.39-21.556-4.418h-.271zM40.647 30.904a1.06 1.06 0 0 1 1.06 1.06 1.06 1.06 0 0 1-1.06 1.06 1.06 1.06 0 0 1-1.06-1.06 1.06 1.06 0 0 1 1.06-1.06zm-5.4 11.667a3.18 3.18 0 0 1 2.911 1.902 3.18 3.18 0 0 1 .27 1.28 3.18 3.18 0 0 1-3.182 3.18 3.18 3.18 0 0 1-3.18-3.18 3.18 3.18 0 0 1 3.18-3.182z" clip-rule="evenodd" image-rendering="optimizeQuality" shape-rendering="geometricPrecision" text-rendering="geometricPrecision"/>
  <path fill="#fd7b10" fill-rule="evenodd" d="M73.923 26.823c-3.17-.002-6.4.384-9.69 1.157-10.187 2.92-18.836 8.296-25.946 16.13-.06.117-.103.238-.128.362a3.18 3.18 0 0 1 .268 1.28 3.18 3.18 0 0 1-3.18 3.18 3.18 3.18 0 0 1-.691-.078C26.888 57.625 21.352 67.638 17.95 78.89a2.77 2.77 0 0 0 .28 1.683C23.645 67.92 33.18 60.58 46.843 58.555c5.536-13.807 15.727-21.52 30.574-23.141 3.406-.43 6.866-.71 10.38-.842a24.65 24.65 0 0 1 3.646-.56 17.8 17.8 0 0 0 2.244-1.123.634.634 0 0 1 .28-.42c-6.388-3.76-13.07-5.642-20.043-5.646z" clip-rule="evenodd" image-rendering="optimizeQuality" shape-rendering="geometricPrecision" text-rendering="geometricPrecision"/>
  <path fill="#fe6847" fill-rule="evenodd" d="M98.735 22.51c3.48 6.532 1.89 11.347-4.769 14.446-1.921.6-3.885.927-5.89.982-1.458.213-2.954.4-4.488.561-3.145.323-6.324.697-9.538 1.122-2.188.325-4.245.98-6.17 1.964-6.91 2.795-12.146 7.47-15.709 14.025a12.208 12.208 0 0 0-.841 2.805c2.253.15 4.403.618 6.451 1.402A9.712 9.712 0 0 1 61.99 61.5a16.076 16.076 0 0 1 4.207 2.805 9.02 9.02 0 0 1 2.805 2.525c.41.269.784.596 1.122.982 1.455.048 2.857.189 4.208.42 5.098.093 10.147 0 15.147-.28h2.525c7.789-1.09 14.895-3.895 21.318-8.415a37.571 37.571 0 0 1 5.049-4.348c1.28-.555 2.403-.321 3.366.701a21.58 21.58 0 0 1-.28-2.805 39.725 39.725 0 0 0-3.647-9.256c-3.413-7.245-8.275-13.323-14.586-18.233a10.346 10.346 0 0 0-3.086-2.524c-.428.02-.709-.167-.841-.561zm12.463 14.948zm-.124.331zm-.387 1.47zM94.762 52.75zm-27.522.19a2.65 2.65 0 0 1 2.65 2.65 2.65 2.65 0 0 1-2.65 2.651 2.65 2.65 0 0 1-2.65-2.65 2.65 2.65 0 0 1 2.65-2.65zm16.248 6.126zm-.54.33z" clip-rule="evenodd" image-rendering="optimizeQuality" shape-rendering="geometricPrecision" text-rendering="geometricPrecision"/>
  <path fill="#fd3e1d" fill-rule="evenodd" d="M98.735 22.51h.56c.133.395.414.582.842.561a10.346 10.346 0 0 1 3.086 2.525 40.956 40.956 0 0 1 2.384 5.89c1.087 7.033-1.671 11.942-8.275 14.727-5.248 2.083-10.671 2.738-16.269 1.963a50.225 50.225 0 0 1-15.708-5.049c.86-.521 1.7-1.035 2.524-1.542a19.871 19.871 0 0 1 6.171-1.964 326.6 326.6 0 0 1 9.537-1.122 113.66 113.66 0 0 0 4.489-.56 21.689 21.689 0 0 0 5.89-.983c6.659-3.1 8.248-7.915 4.769-14.446z" clip-rule="evenodd" image-rendering="optimizeQuality" shape-rendering="geometricPrecision" text-rendering="geometricPrecision"/>
  <path fill="#ff4158" fill-rule="evenodd" d="M58.342 106.38c5.468 7.365 12.854 11.292 22.16 11.782-4.753 1.799-9.335 1.378-13.745-1.263-4.02-2.567-6.825-6.073-8.415-10.519zm45.161-2.805c-7.472 4.615-15.512 5.877-24.123 3.787-9.49-2.85-15.427-9.068-17.812-18.653a38.503 38.503 0 0 1-.42-7.854 13.998 13.998 0 0 1 2.384-3.366 11.166 11.166 0 0 1 2.244-1.964c2.04 11.016 7.978 19.197 17.811 24.544 6.255 3.345 12.894 4.513 19.916 3.506zm-42.356-22.72c-.13 2.578.01 5.196.421 7.854 2.385 9.585 8.323 15.803 17.812 18.653 8.61 2.09 16.651.828 24.123-3.787a5.67 5.67 0 0 0 1.403-.28c.401.065.542.252.42.561-6.934 7.045-15.208 11.814-24.824 14.306-9.306-.49-16.692-4.417-22.16-11.782-3.195-8.944-2.26-17.453 2.805-25.525z" clip-rule="evenodd" image-rendering="optimizeQuality" shape-rendering="geometricPrecision" text-rendering="geometricPrecision"/>
  <path fill="#0e963e" fill-rule="evenodd" d="M34.5 67.39c-8.293 8.956-11.004 19.334-8.135 31.136a41.733 41.733 0 0 1-4.909-8.976 17.15 17.15 0 0 1 .561-6.732c2.305-6.678 6.466-11.82 12.483-15.427zm28.61-.28a7.664 7.664 0 0 1 2.806 2.665c-11.2 8.725-15.547 20.085-13.043 34.081 1.729 6.407 5.235 11.597 10.518 15.568a25.94 25.94 0 0 1-7.293-.982c1.1-.289 2.222-.195 3.366.28.532-.063.906-.344 1.122-.84a297.91 297.91 0 0 0-5.61-1.263c-14.359-5.485-19.922-15.723-16.69-30.715 4.455-11.33 12.73-17.594 24.825-18.794zm0 0c-12.094 1.2-20.369 7.465-24.824 18.794-3.232 14.992 2.331 25.23 16.69 30.715 1.876.403 3.746.824 5.61 1.262-.216.497-.59.778-1.122.842-1.144-.476-2.266-.57-3.366-.28-12.329-3.08-22.24-9.72-29.733-19.917-2.87-11.802-.158-22.18 8.135-31.135 6.996-4.625 14.57-5.794 22.72-3.507a22.478 22.478 0 0 1 5.89 3.226z" clip-rule="evenodd" image-rendering="optimizeQuality" shape-rendering="geometricPrecision" text-rendering="geometricPrecision"/>
  <path fill="#0e8343" fill-rule="evenodd" d="M63.11 67.11a7.664 7.664 0 0 1 2.806 2.665c-11.2 8.725-15.547 20.085-13.043 34.081 1.729 6.407 5.235 11.597 10.518 15.568a25.94 25.94 0 0 1-7.293-.982c1.1-.289 2.222-.195 3.366.28.532-.063.906-.344 1.122-.84a297.91 297.91 0 0 0-5.61-1.263c-14.359-5.485-19.922-15.723-16.69-30.715 4.455-11.33 12.73-17.594 24.825-18.794zm-28.61.28c-8.293 8.956-11.004 19.334-8.135 31.136a41.733 41.733 0 0 1-4.909-8.976 17.15 17.15 0 0 1 .561-6.732c2.305-6.678 6.466-11.82 12.483-15.427z" clip-rule="evenodd" image-rendering="optimizeQuality" shape-rendering="geometricPrecision" text-rendering="geometricPrecision"/>
  <path fill="#3e183f" fill-rule="evenodd" d="M118.37 60.94c-6.069 5.324-13.081 8.784-21.038 10.378a41.825 41.825 0 0 1-7.854 1.262c-6.266.17-12.53.124-18.794-.14h-.28v2.805a22.242 22.242 0 0 0 6.311 6.17c9.065 4.967 18.215 5.183 27.45.65a3.71 3.71 0 0 1 3.53-2.599 3.71 3.71 0 0 1 .59.049c4.924-3.683 8.473-8.379 10.646-14.088a11.056 11.056 0 0 0-.561-4.488z" clip-rule="evenodd" image-rendering="optimizeQuality" shape-rendering="geometricPrecision" text-rendering="geometricPrecision"/>
  <path fill="#9c2040" fill-rule="evenodd" d="M103.503 103.575c-7.472 4.615-15.512 5.877-24.123 3.787-9.49-2.85-15.427-9.068-17.812-18.653a38.503 38.503 0 0 1-.42-7.854 13.998 13.998 0 0 1 2.384-3.366 11.166 11.166 0 0 1 2.244-1.964c2.04 11.016 7.978 19.197 17.811 24.544 6.255 3.345 12.894 4.513 19.916 3.506zm-45.161 2.805c5.468 7.365 12.854 11.292 22.16 11.782-4.753 1.799-9.335 1.378-13.745-1.263-4.02-2.567-6.825-6.073-8.415-10.519z" clip-rule="evenodd" image-rendering="optimizeQuality" shape-rendering="geometricPrecision" text-rendering="geometricPrecision"/>
  <path fill="#f20821" fill-rule="evenodd" d="M58.342 106.38c5.468 7.365 12.854 11.292 22.16 11.782-4.753 1.799-9.335 1.378-13.745-1.263-4.02-2.567-6.825-6.073-8.415-10.519zm45.161-2.805c-7.472 4.615-15.512 5.877-24.123 3.787-9.49-2.85-15.427-9.068-17.812-18.653a38.503 38.503 0 0 1-.42-7.854 13.998 13.998 0 0 1 2.384-3.366 11.166 11.166 0 0 1 2.244-1.964c2.04 11.016 7.978 19.197 17.811 24.544 6.255 3.345 12.894 4.513 19.916 3.506zm-42.356-22.72c-.13 2.578.01 5.196.421 7.854 2.385 9.585 8.323 15.803 17.812 18.653 8.61 2.09 16.651.828 24.123-3.787a5.67 5.67 0 0 0 1.403-.28c.401.065.542.252.42.561-6.934 7.045-15.208 11.814-24.824 14.306-9.306-.49-16.692-4.417-22.16-11.782-3.195-8.944-2.26-17.453 2.805-25.525z" clip-rule="evenodd" image-rendering="optimizeQuality" shape-rendering="geometricPrecision" text-rendering="geometricPrecision"/>
  <path fill="#b50511" fill-rule="evenodd" d="M103.503 103.575c-7.472 4.615-15.512 5.877-24.123 3.787-9.49-2.85-15.427-9.068-17.812-18.653a38.503 38.503 0 0 1-.42-7.854 13.998 13.998 0 0 1 2.384-3.366 11.166 11.166 0 0 1 2.244-1.964c2.04 11.016 7.978 19.197 17.811 24.544 6.255 3.345 12.894 4.513 19.916 3.506z" clip-rule="evenodd" image-rendering="optimizeQuality" shape-rendering="geometricPrecision" text-rendering="geometricPrecision"/>
  <path fill="#3e183f" fill-rule="evenodd" d="M113.882 91.233c-1.227 2.77-3.19 4.874-5.89 6.312-6.36 2.738-12.719 2.785-19.075.14-.27-.242-.27-.43 0-.561 9.292 2.048 17.52-.102 24.684-6.452.224.129.317.316.28.561z" clip-rule="evenodd" image-rendering="optimizeQuality" shape-rendering="geometricPrecision" text-rendering="geometricPrecision"/>
  <path fill="#b50511" fill-rule="evenodd" d="M58.342 106.38c5.468 7.365 12.854 11.292 22.16 11.782-4.753 1.799-9.335 1.378-13.745-1.263-4.02-2.567-6.825-6.073-8.415-10.519z" clip-rule="evenodd" image-rendering="optimizeQuality" shape-rendering="geometricPrecision" text-rendering="geometricPrecision"/>
</svg>
